<?xml version="1.0" encoding="utf-8"?>
<!-- Generator: Adobe Illustrator 21.0.0, SVG Export Plug-In . SVG Version: 6.00 Build 0)  -->
<svg version="1.1" id="Layer_1" xmlns="http://www.w3.org/2000/svg" xmlns:xlink="http://www.w3.org/1999/xlink" x="0px" y="0px"
	 viewBox="0 0 36 38" style="enable-background:new 0 0 36 38;" xml:space="preserve">
<style type="text/css">
	.st0{fill:#F87171;}
</style>
<g>
	<path class="st0" d="M33.8,36.5c-0.6,0.1-3.6,0.2-4.3,0.2c-0.6,0-4-0.1-4.6-0.2s-0.7-0.2-0.7-0.9c0.1-0.8,0.4-11,0.4-11.6
		c0-0.7-0.1-1.1-0.6-1.1c-0.5-0.1-5.8-0.2-6-0.2c-0.2,0-5.6,0.2-6,0.2c-0.4,0.1-0.6,0.3-0.6,1.1c0,0.6,0.3,10.8,0.3,11.6
		c0,0.7-0.1,0.8-0.7,0.9c-0.5,0.1-4,0.2-4.7,0.2c-0.6,0-3.8-0.1-4.3-0.2s-0.8-0.2-0.7-0.8C1.5,35.2,2,23.5,2,19.6
		C2,15.7,1.6,3.2,1.5,2.7c-0.1-0.8,0.1-1,0.7-0.9c0.5,0.1,3.9,0.2,4.4,0.2c0.5,0,4.3-0.1,4.6-0.2c0.6-0.1,0.7,0.1,0.6,0.8
		c-0.1,0.5-0.5,10.3-0.5,10.8c0,0.7,0,1,0.5,1c0.5,0.1,5.9,0.2,6.3,0.2c0.4,0,5.7-0.2,6.1-0.2c0.5-0.1,0.6-0.4,0.6-1
		c-0.1-0.6-0.4-10.3-0.4-10.8c0-0.7,0.1-0.8,0.6-0.8c0.3,0.1,3.9,0.2,4.4,0.2c0.5,0,4-0.1,4.4-0.2c0.7-0.1,0.8,0.2,0.7,0.9
		c-0.1,0.6-0.5,13-0.5,16.9c0,3.9,0.5,15.6,0.5,16.2C34.8,36.4,34.6,36.5,33.8,36.5z"/>
</g>
</svg>
