<svg xmlns="http://www.w3.org/2000/svg" width="12.414" height="13.941" viewBox="0 0 12.414 13.941">
    <g id="attach_1_" data-name="attach (1)" transform="translate(-28.042)">
        <g id="Group_531" data-name="Group 531" transform="translate(28.042)">
            <path id="Path_312" fill="#888" d="M39.44 1.015a3.477 3.477 0 0 0-4.911 0l-5.171 5.171a.408.408 0 0 0 .578.578l5.171-5.171a2.72 2.72 0 0 1 3.756 0 2.659 2.659 0 0 1 0 3.755l-7.22 7.3a1.673 1.673 0 0 1-2.311 0 1.636 1.636 0 0 1 0-2.311l6.932-7.013a.628.628 0 0 1 .867 0 .614.614 0 0 1 0 .867l-6.642 6.724a.455.455 0 0 0 0 .578.408.408 0 0 0 .578 0l6.642-6.724a1.431 1.431 0 0 0 0-2.022 1.465 1.465 0 0 0-2.022 0l-6.934 7.015a2.467 2.467 0 0 0 0 3.466 2.464 2.464 0 0 0 3.466 0l7.22-7.3a3.476 3.476 0 0 0 .001-4.913z" data-name="Path 312" transform="translate(-28.041)"/>
        </g>
    </g>
</svg>
