<svg xmlns="http://www.w3.org/2000/svg" width="18.001" height="12.587" viewBox="0 0 18.001 12.587">
    <g id="inbox" transform="translate(0 -69.376)">
        <g id="Group_518" data-name="Group 518" transform="translate(0 69.376)">
            <path id="Path_291" fill="#5685ee" d="M17.881 74.511l-1.978-4a2.02 2.02 0 0 0-1.838-1.139H3.916a2.007 2.007 0 0 0-1.838 1.139L.1 74.491a.9.9 0 0 0-.1.38v5.374a1.718 1.718 0 0 0 1.718 1.718h14.565A1.718 1.718 0 0 0 18 80.244V74.89a1.061 1.061 0 0 0-.119-.379zm-5.414-.479a.872.872 0 0 0-.839.679 2.768 2.768 0 0 1-2.658 2.217 2.738 2.738 0 0 1-2.657-2.218.839.839 0 0 0-.839-.679H2.238l1.379-2.757a.393.393 0 0 1 .3-.2h10.148a.316.316 0 0 1 .3.2l1.359 2.757z" data-name="Path 291" transform="translate(0 -69.376)"/>
        </g>
    </g>
</svg>
