<svg xmlns="http://www.w3.org/2000/svg" width="16.246" height="15.569" viewBox="0 0 16.246 15.569">
    <defs>
        <style>
            .cls-1{fill:#818181}
        </style>
    </defs>
    <g id="send_1_" data-name="send (1)">
        <path id="Path_292" d="M8.75 17.612v3.14a.507.507 0 0 0 .917.3l1.836-2.5z" class="cls-1" data-name="Path 292" transform="translate(-2.827 -5.69)"/>
        <path id="Path_293" d="M16.033.094A.508.508 0 0 0 15.5.058L.273 8.011a.508.508 0 0 0 .07.931l4.234 1.447 9.017-7.71-6.977 8.407 7.1 2.425a.519.519 0 0 0 .164.027.507.507 0 0 0 .5-.433L16.241.583a.509.509 0 0 0-.208-.489z" class="cls-1" data-name="Path 293"/>
    </g>
</svg>
