<svg xmlns="http://www.w3.org/2000/svg" width="17.994" height="17.165" viewBox="0 0 17.994 17.165">
    <g id="star_1_" data-name="star (1)" transform="translate(0 -11.796)">
        <g id="Group_519" data-name="Group 519" transform="translate(0 11.796)">
            <path id="Path_294" fill="#818181" d="M17.968 18.314a.527.527 0 0 0-.425-.359l-5.578-.811L9.47 12.09a.527.527 0 0 0-.945 0L6.03 17.145l-5.578.811a.527.527 0 0 0-.292.9l4.04 3.933-.953 5.556a.527.527 0 0 0 .765.556L9 26.277l4.986 2.623a.527.527 0 0 0 .765-.556l-.951-5.555 4.037-3.935a.527.527 0 0 0 .131-.54z" data-name="Path 294" transform="translate(0 -11.796)"/>
        </g>
    </g>
</svg>
