<svg xmlns="http://www.w3.org/2000/svg" width="22.686" height="22.686" viewBox="0 0 22.686 22.686">
    <g id="tag" transform="rotate(-45 13.692 5.671)">
        <g id="Group_520" data-name="Group 520">
            <path id="Path_300" fill="#818181" d="M15.568 7.684L8.353.469A1.614 1.614 0 0 0 7.218 0H1.6A1.6 1.6 0 0 0 0 1.6v5.618a1.587 1.587 0 0 0 .473 1.135l7.218 7.218a1.6 1.6 0 0 0 2.266 0l5.614-5.614a1.607 1.607 0 0 0 0-2.274zM2.807 4.01a1.2 1.2 0 1 1 1.2-1.2 1.2 1.2 0 0 1-1.2 1.2z" data-name="Path 300"/>
        </g>
    </g>
</svg>
