<svg xmlns="http://www.w3.org/2000/svg" width="49.696" height="52.312" viewBox="0 0 49.696 52.312">
    <path id="_220c2335-ff26-490d-9248-affcc9b94f69" fill="#5685ee" d="M54.649 36.618a7.847 7.847 0 1 0 7.851 7.847 7.847 7.847 0 0 0-7.851-7.847zm3.54 8.771a1.308 1.308 0 0 1-1.849 0l-.383-.383v2.074a1.308 1.308 0 1 1-2.616 0v-2.074l-.383.383a1.308 1.308 0 1 1-1.849-1.849l2.616-2.615a1.079 1.079 0 0 1 .089-.08l.029-.022q.034-.027.068-.05l.031-.02a.8.8 0 0 1 .1-.057l.019-.009q.042-.021.086-.04l.034-.013.082-.029.028-.008a1.145 1.145 0 0 1 .113-.028c.038-.007.076-.012.114-.016h.146a1.3 1.3 0 0 1 .231.021l.034.007.077.018.042.012.073.026.037.013c.033.013.065.029.1.045l.036.019.067.04.034.021q.042.029.081.059l.013.01a1.136 1.136 0 0 1 .09.082l.007.006 2.614 2.616a1.308 1.308 0 0 1-.009 1.841zm-14-.925A10.462 10.462 0 0 1 54.649 34V15.694L38.97 0H19.339A6.539 6.539 0 0 0 12.8 6.539v39.234a6.539 6.539 0 0 0 6.539 6.539h28.4a10.427 10.427 0 0 1-3.552-7.847zM37.648 2.616L52.034 17h-7.847a6.539 6.539 0 0 1-6.539-6.539zM24.57 24.848h10.462a1.308 1.308 0 1 1 0 2.616H24.57a1.308 1.308 0 0 1 0-2.616zm0 5.231h18.309a1.308 1.308 0 0 1 0 2.616H24.57a1.308 1.308 0 1 1 0-2.616zm18.27 7.847H24.57a1.308 1.308 0 1 1 0-2.616h18.27a1.308 1.308 0 0 1 0 2.616z" data-name="220c2335-ff26-490d-9248-affcc9b94f69" transform="translate(-12.8)"/>
</svg>
