<svg xmlns="http://www.w3.org/2000/svg" width="17.329" height="15.019" viewBox="0 0 17.329 15.019">
  <g id="Group_286" data-name="Group 286" transform="translate(-171.405 -975.449)">
    <g id="photograph" transform="translate(171.405 975.449)">
      <g id="Group_287" data-name="Group 287" transform="translate(0 0)">
        <path id="Path_143" data-name="Path 143" d="M16.653,39.528a2.226,2.226,0,0,0-1.634-.677H13l-.46-1.227a1.676,1.676,0,0,0-.627-.763,1.607,1.607,0,0,0-.934-.32H6.354a1.608,1.608,0,0,0-.934.32,1.677,1.677,0,0,0-.627.763l-.46,1.227H2.311a2.226,2.226,0,0,0-1.634.677A2.226,2.226,0,0,0,0,41.161v8.087a2.226,2.226,0,0,0,.677,1.634,2.226,2.226,0,0,0,1.634.677H15.019a2.311,2.311,0,0,0,2.311-2.311V41.161A2.226,2.226,0,0,0,16.653,39.528Zm-5.131,8.534a3.894,3.894,0,0,1-2.857,1.187,3.894,3.894,0,0,1-2.857-1.187,4.031,4.031,0,0,1,0-5.713,3.894,3.894,0,0,1,2.857-1.187,3.894,3.894,0,0,1,2.857,1.187,4.031,4.031,0,0,1,0,5.713Z" transform="translate(0 -36.54)" fill="#5685ee"/>
        <path id="Path_144" data-name="Path 144" d="M194.456,228.4a2.6,2.6,0,1,0,1.837.763A2.5,2.5,0,0,0,194.456,228.4Z" transform="translate(-185.791 -222.338)" fill="#5685ee"/>
      </g>
    </g>
  </g>
</svg>
