<svg xmlns="http://www.w3.org/2000/svg" width="20.69" height="18.75" viewBox="0 0 20.69 18.75">
    <defs>
        <style>
            .prefix__cls-1{fill:#f87171}
        </style>
    </defs>
    <g id="prefix__add_2_" data-name="add (2)" transform="translate(0 -2.25)">
        <path id="prefix__Path_274" d="M12.194 2.25H2.353A2.352 2.352 0 0 0 0 4.6v11.341a2.352 2.352 0 0 0 2.353 2.353h5.639a7.471 7.471 0 0 1-.719-3.209 7.383 7.383 0 0 1 .95-3.637h-4.8a.856.856 0 0 1 0-1.711h5.99a.488.488 0 0 1 .111.009 7.414 7.414 0 0 1 5.023-2.139v-3a2.352 2.352 0 0 0-2.353-2.357zM6.846 8.026H3.423a.856.856 0 0 1 0-1.711h3.423a.856.856 0 0 1 0 1.711z" class="prefix__cls-1" data-name="Path 274"/>
        <path id="prefix__Path_275" d="M16.642 10.5a6.142 6.142 0 1 0 6.142 6.142 6.149 6.149 0 0 0-6.142-6.142zm2.5 7.052h-1.59v1.592a.91.91 0 1 1-1.82 0v-1.592H14.14a.91.91 0 1 1 0-1.82h1.592V14.14a.91.91 0 1 1 1.82 0v1.592h1.592a.91.91 0 1 1 0 1.82z" class="prefix__cls-1" data-name="Path 275" transform="translate(-2.095 -1.784)"/>
    </g>
</svg>
