<svg xmlns="http://www.w3.org/2000/svg" width="19" height="18.999" viewBox="0 0 19 18.999">
    <g id="prefix__shapes-and-symbols" transform="translate(0 -.016)">
        <g id="prefix__Group_185" data-name="Group 185" transform="translate(0 .016)">
            <path id="prefix__Path_70" fill="#fff" d="M11.593 9.515l7.1-7.1a1.041 1.041 0 0 0 0-1.469l-.619-.627a1.042 1.042 0 0 0-1.47 0l-7.1 7.1L2.4.319a1.041 1.041 0 0 0-1.469 0L.3.942a1.04 1.04 0 0 0 0 1.469l7.1 7.1-7.1 7.1a1.042 1.042 0 0 0 0 1.47l.623.622a1.041 1.041 0 0 0 1.469 0l7.1-7.1 7.1 7.1a1.031 1.031 0 0 0 .735.3 1.031 1.031 0 0 0 .735-.3l.623-.622a1.042 1.042 0 0 0 0-1.47z" data-name="Path 70" transform="translate(0 -.016)"/>
        </g>
    </g>
</svg>
