<svg xmlns="http://www.w3.org/2000/svg" id="prefix__dashboard" width="24.717" height="24.717" viewBox="0 0 24.717 24.717">
    <defs>
        <style>
            .prefix__cls-1{fill:#585e91}
        </style>
    </defs>
    <path id="prefix__Path_3" d="M9.526 0H1.8A1.8 1.8 0 0 0 0 1.8v4.637a1.8 1.8 0 0 0 1.8 1.8h7.726a1.8 1.8 0 0 0 1.8-1.8V1.8a1.8 1.8 0 0 0-1.8-1.8zm0 0" class="prefix__cls-1" data-name="Path 3"/>
    <path id="prefix__Path_4" d="M9.526 213.332H1.8a1.8 1.8 0 0 0-1.8 1.8v10.814a1.8 1.8 0 0 0 1.8 1.8h7.726a1.8 1.8 0 0 0 1.8-1.8v-10.812a1.8 1.8 0 0 0-1.8-1.802zm0 0" class="prefix__cls-1" data-name="Path 4" transform="translate(0 -203.033)"/>
    <path id="prefix__Path_5" d="M286.859 341.332h-7.724a1.8 1.8 0 0 0-1.8 1.8v4.634a1.8 1.8 0 0 0 1.8 1.8h7.724a1.8 1.8 0 0 0 1.8-1.8v-4.634a1.8 1.8 0 0 0-1.8-1.8zm0 0" class="prefix__cls-1" data-name="Path 5" transform="translate(-263.944 -324.854)"/>
    <path id="prefix__Path_6" d="M286.859 0h-7.724a1.8 1.8 0 0 0-1.8 1.8v10.816a1.8 1.8 0 0 0 1.8 1.8h7.724a1.8 1.8 0 0 0 1.8-1.8V1.8a1.8 1.8 0 0 0-1.8-1.8zm0 0" class="prefix__cls-1" data-name="Path 6" transform="translate(-263.944)"/>
</svg>
