<svg xmlns="http://www.w3.org/2000/svg" id="prefix__edit_3_" width="15" height="15" data-name="edit (3)" viewBox="0 0 15 15">
    <defs>
        <style>
            .prefix__cls-1{fill:#5685ee}
        </style>
    </defs>
    <path id="prefix__Path_288" d="M8.906 0H1.719A1.718 1.718 0 0 0 0 1.719v9.687a1.718 1.718 0 0 0 1.719 1.719h4.612l.138-.769a1.74 1.74 0 0 1 .475-.919l3.681-3.675V1.719A1.718 1.718 0 0 0 8.906 0zM2.5 2.5H5a.625.625 0 0 1 0 1.25H2.5a.625.625 0 0 1 0-1.25zm3.125 6.25H2.5a.625.625 0 0 1 0-1.25h3.125a.625.625 0 1 1 0 1.25zm2.5-2.5H2.5A.625.625 0 0 1 2.5 5h5.625a.625.625 0 1 1 0 1.25z" class="prefix__cls-1" data-name="Path 288"/>
    <path id="prefix__Path_289" d="M12.247 19.378a.469.469 0 0 1-.461-.551l.331-1.878a.47.47 0 0 1 .13-.25l4.641-4.64a.954.954 0 0 1 1.436-.111l.773.773a1.094 1.094 0 0 1 0 1.547l-4.641 4.641a.462.462 0 0 1-.25.13l-1.878.331a.447.447 0 0 1-.081.008zm1.878-.8h.006z" class="prefix__cls-1" data-name="Path 289" transform="translate(-4.417 -4.378)"/>
</svg>
