<svg xmlns="http://www.w3.org/2000/svg" width="14" height="14.885" viewBox="0 0 14 14.885">
    <g id="prefix__Group_468" data-name="Group 468" transform="translate(-273 -494)">
        <rect id="prefix__Rectangle_447" width="12.22" height="14.885" fill="#c4c4c4" data-name="Rectangle 447" rx="2" transform="translate(273 494)"/>
        <g id="prefix__import_1_" data-name="import (1)" transform="translate(275.465 498.124)">
            <g id="prefix__Group_443" data-name="Group 443">
                <g id="prefix__Group_442" data-name="Group 442">
                    <path id="prefix__Path_281" fill="#fff" d="M6.248 1.923H4.806V.481A.481.481 0 0 0 4.037.1L.192 2.98a.481.481 0 0 0 0 .769l3.845 2.884a.481.481 0 0 0 .769-.384V4.806h1.836A4.3 4.3 0 0 1 10.511 7.2l.113.226a.48.48 0 0 0 .91-.215 5.292 5.292 0 0 0-5.286-5.288z" data-name="Path 281"/>
                </g>
            </g>
        </g>
    </g>
</svg>
