<svg xmlns="http://www.w3.org/2000/svg" width="14" height="10.5" viewBox="0 0 14 10.5">
    <g id="business" transform="translate(0 -64)">
        <g id="Group_75" data-name="Group 75" transform="translate(0 64)">
            <path id="Path_68" fill="#c4c4c4" d="M12.833 64h-8.75a1.1 1.1 0 0 0-.93.513L0 69.247l3.153 4.734a1.175 1.175 0 0 0 .968.519h8.712A1.166 1.166 0 0 0 14 73.333v-8.166A1.166 1.166 0 0 0 12.833 64zM5.25 70.125a.875.875 0 1 1 .875-.875.874.874 0 0 1-.875.875zm2.917 0a.875.875 0 1 1 .875-.875.874.874 0 0 1-.875.875zm2.917 0a.875.875 0 1 1 .875-.875.874.874 0 0 1-.876.875z" data-name="Path 68" transform="translate(0 -64)"/>
        </g>
    </g>
</svg>
