<svg xmlns="http://www.w3.org/2000/svg" width="21.705" height="15.917" viewBox="0 0 21.705 15.917">
  <path id="Path_142" data-name="Path 142" d="M20.761,81.971a4.279,4.279,0,0,0-2.414-1.532,2.889,2.889,0,0,0-2.43-4.454,2.763,2.763,0,0,0-1.876.7,5.794,5.794,0,0,0-5.359-3.595,5.577,5.577,0,0,0-4.092,1.7,5.575,5.575,0,0,0-1.7,4.092q0,.147.023.486A5.056,5.056,0,0,0,0,83.944a4.877,4.877,0,0,0,1.487,3.578,4.876,4.876,0,0,0,3.578,1.487h12.3a4.336,4.336,0,0,0,3.4-7.037Zm-6.4-.305a.348.348,0,0,1-.254.107H11.576v3.979a.367.367,0,0,1-.362.362H9.044a.367.367,0,0,1-.362-.362V81.773H6.15a.348.348,0,0,1-.362-.361A.425.425,0,0,1,5.9,81.14l3.968-3.968a.383.383,0,0,1,.52,0l3.979,3.979a.352.352,0,0,1,.1.26A.348.348,0,0,1,14.362,81.666Z" transform="translate(0 -73.091)" fill="white"/>
</svg>
